<mxfile host="app.diagrams.net" modified="2024-01-29T04:00:41.833Z" agent="Mozilla/5.0 (Windows NT 10.0; Win64; x64) AppleWebKit/537.36 (KHTML, like Gecko) Chrome/120.0.0.0 Safari/537.36 Edg/120.0.0.0" version="23.0.2" etag="AQ7-QR_y5WJUAtB0HV2u" type="github">
  <diagram name="페이지-1" id="P6IXKB0W_Uoodh0n3bvm">
    <mxGraphModel>
      <root>
        <mxCell id="0" />
        <mxCell id="1" parent="0" />
      </root>
    </mxGraphModel>
  </diagram>
</mxfile>
